<svg xmlns="http://www.w3.org/2000/svg" viewBox="0 0 90 22"><path d="M25.54 16.8V5.2h-2.007v8.32l-6.79-8.32H15v11.6h2V8.448l6.806 8.352h1.735zM43.563 11a6.249 6.249 0 0 0-12.487 0 6.249 6.249 0 0 0 12.487 0zm-10.48 0a4.228 4.228 0 1 1 4.236 4.152A4.15 4.15 0 0 1 33.083 11zm19.088 5.8h1.735l5.07-11.6h-2.195l-3.743 8.68-3.76-8.68H47.1zM75 11a6.249 6.249 0 0 0-12.487 0A6.249 6.249 0 0 0 75 11zm-10.48 0a4.228 4.228 0 1 1 4.236 4.152A4.15 4.15 0 0 1 64.522 11z" fill="#fff" fill-rule="evenodd"/></svg>