<svg xmlns="http://www.w3.org/2000/svg" viewBox="0 0 22 22"><path d="M11 21.985A10.987 10.987 0 0 1 .138 12.648h5.621a5.492 5.492 0 1 0 0-3.3H4.621a6.589 6.589 0 0 1 12.946 1.1h3.3a9.885 9.885 0 0 0-19.617-1.1H.138A10.985 10.985 0 1 1 11 21.985zm9.337-10.436h-2.771a6.588 6.588 0 0 1-12.555 2.2H3.82a7.688 7.688 0 0 0 14.69-1.1h1.119a8.785 8.785 0 0 1-16.975 1.1H1.506a9.884 9.884 0 0 0 19.365-2.2h-.534zm-18.674-1.1h.568a8.785 8.785 0 0 1 17.4-1.1H18.51a7.688 7.688 0 0 0-15.178 1.1h2.2l-.027.549.027.549H.029Q.015 11.276.015 11q0-.276.014-.549h1.634z" fill-rule="evenodd" stroke-width="2%"/></svg>
