<svg xmlns="http://www.w3.org/2000/svg" xmlns:xlink="http://www.w3.org/1999/xlink" width="1024" height="1024" viewBox="0 0 1024 1024">
  <metadata><?xpacket begin="﻿" id="W5M0MpCehiHzreSzNTczkc9d"?>
<x:xmpmeta xmlns:x="adobe:ns:meta/" x:xmptk="Adobe XMP Core 5.6-c138 79.159824, 2016/09/14-01:09:01        ">
   <rdf:RDF xmlns:rdf="http://www.w3.org/1999/02/22-rdf-syntax-ns#">
      <rdf:Description rdf:about=""/>
   </rdf:RDF>
</x:xmpmeta>
                                                                                                    
                                                                                                    
                                                                                                    
                                                                                                    
                                                                                                    
                                                                                                    
                                                                                                    
                                                                                                    
                                                                                                    
                                                                                                    
                                                                                                    
                                                                                                    
                                                                                                    
                                                                                                    
                                                                                                    
                                                                                                    
                                                                                                    
                                                                                                    
                                                                                                    
                                                                                                    
                           
<?xpacket end="w"?></metadata>
<defs>
    <style>
      .cls-1 {
        fill: #111444;
        filter: url(#filter);
      }

      .cls-2 {
        fill: #fff;
        fill-rule: evenodd;
      }
    </style>
    <filter id="filter" x="-17" y="-11" width="1059" height="1059" filterUnits="userSpaceOnUse">
      <feOffset result="offset" dy="6" in="SourceAlpha"/>
      <feGaussianBlur result="blur" stdDeviation="4.243"/>
      <feFlood result="flood" flood-opacity="0.34"/>
      <feComposite result="composite" operator="in" in2="blur"/>
      <feBlend result="blend" in="SourceGraphic"/>
    </filter>
  </defs>
  <circle class="cls-1" cx="512" cy="512" r="512"/>
  <path class="cls-2" d="M880.578,522.492q0-16.341-5.129-24.39t-18.211-8.044q-14.879,0-21.545,8.811t-6.669,28.986v69.21H792.6V465.03h34.626v18.388H828a41.721,41.721,0,0,1,17.954-16.728,52.13,52.13,0,0,1,22.571-5.235q14.62,0,23.982,3.958A35.585,35.585,0,0,1,907.253,476.4a42.448,42.448,0,0,1,7.567,17.111A106.223,106.223,0,0,1,917,515.852v81.213H880.578V522.492ZM685.445,539.858q0.769,17.622,8.977,25.539t23.6,7.917q11.025,0,18.98-5.491t9.746-11.62h32.061q-7.694,23.751-23.6,33.966t-38.474,10.216a76.009,76.009,0,0,1-28.213-4.98,58.649,58.649,0,0,1-21.289-14.174,63.686,63.686,0,0,1-13.466-21.963,80.018,80.018,0,0,1-4.745-28.093,76.681,76.681,0,0,1,4.874-27.581,63.95,63.95,0,0,1,35.267-36.776,68.907,68.907,0,0,1,27.572-5.363q16.929,0,29.5,6.512a58.869,58.869,0,0,1,20.648,17.494,71.834,71.834,0,0,1,11.67,25.028,92.943,92.943,0,0,1,2.565,29.369h-95.67Zm50.143-43.926q-6.54-7.148-19.878-7.151-8.723,0-14.491,2.937A27.6,27.6,0,0,0,691.985,499a26.635,26.635,0,0,0-4.873,9.194,41.191,41.191,0,0,0-1.667,8.684h59.248Q742.127,503.083,735.588,495.932ZM602.627,580.209h-0.513a37.507,37.507,0,0,1-16.8,15.451,56.108,56.108,0,0,1-23.469,4.725q-14.879,0-26.162-5.746a52.419,52.419,0,0,1-18.6-15.579,70.449,70.449,0,0,1-11.029-22.6,94.428,94.428,0,0,1-3.719-26.56,88.738,88.738,0,0,1,3.719-25.666A66.572,66.572,0,0,1,517.088,482.4,54.961,54.961,0,0,1,535.427,467.2q11.025-5.747,25.648-5.746a52.343,52.343,0,0,1,22.443,4.98,39.064,39.064,0,0,1,16.8,14.685h0.513v-66.4h36.421V597.065H602.627V580.209Zm-2.052-65.251a38.379,38.379,0,0,0-5.258-13.28,29.592,29.592,0,0,0-9.619-9.321q-5.9-3.575-14.876-3.576t-15.133,3.576a28.353,28.353,0,0,0-9.875,9.449,41.662,41.662,0,0,0-5.386,13.408,72.349,72.349,0,0,0-1.667,15.706,66.905,66.905,0,0,0,1.8,15.323,41.622,41.622,0,0,0,5.771,13.663,31.872,31.872,0,0,0,10,9.705,27.138,27.138,0,0,0,14.492,3.7q8.976,0,15-3.575a27.244,27.244,0,0,0,9.618-9.578,42.794,42.794,0,0,0,5.13-13.663,80.266,80.266,0,0,0,1.539-15.834A78.4,78.4,0,0,0,600.575,514.958ZM452.505,414.719h36.422V597.065H452.505V414.719ZM398.9,578.677h-0.769a40.912,40.912,0,0,1-17.954,16.6,53.207,53.207,0,0,1-22.571,5.108q-14.621,0-23.982-3.831A34.56,34.56,0,0,1,318.878,585.7a42.337,42.337,0,0,1-7.566-17.111,105.865,105.865,0,0,1-2.18-22.346V465.03h36.421V539.6q0,16.347,5.13,24.389t18.21,8.045q14.873,0,21.545-8.811t6.669-28.986V465.03h36.421V597.065H398.9V578.677ZM202.086,601a95,95,0,1,1,67.236-162.175l-24.084,24.063a60.963,60.963,0,1,0,15.447,60.127h-58.6v-34.03h93.563A95.066,95.066,0,0,1,202.086,601Z"/>
</svg>
