<?xml version="1.0" encoding="iso-8859-1"?>
<!-- Generator: Adobe Illustrator 16.0.0, SVG Export Plug-In . SVG Version: 6.00 Build 0)  -->
<!DOCTYPE svg PUBLIC "-//W3C//DTD SVG 1.1//EN" "http://www.w3.org/Graphics/SVG/1.1/DTD/svg11.dtd">
<svg version="1.1" id="Layer_1" xmlns="http://www.w3.org/2000/svg" xmlns:xlink="http://www.w3.org/1999/xlink" x="0px" y="0px"
	 width="256px" height="256px" viewBox="0 0 256 256" style="enable-background:new 0 0 256 256;" xml:space="preserve">
<path style="fill-rule:evenodd;clip-rule:evenodd;fill:#093999;" d="M128,2.998c69.038,0,125.002,55.965,125.002,125.002
	c0,69.038-55.965,125.002-125.002,125.002C58.963,253.002,2.998,197.037,2.998,128C2.998,58.963,58.963,2.998,128,2.998z"/>
<path style="fill-rule:evenodd;clip-rule:evenodd;fill:#FFFFFF;" d="M128,222.012c-51.922,0-94.012-42.092-94.012-94.012
	c0-51.922,42.089-94.012,94.012-94.012c25.96,0,49.464,10.523,66.476,27.536l-14.244,14.245
	C166.865,62.401,148.398,54.134,128,54.134c-40.795,0-73.866,33.071-73.866,73.866c0,40.795,33.071,73.868,73.866,73.868
	c37.376,0,68.25-27.768,73.166-63.793H128v-20.147h73.867h20.145V128C222.012,179.92,179.921,222.012,128,222.012z"/>
</svg>
